<svg data-v-423bf9ae="" xmlns="http://www.w3.org/2000/svg" viewBox="0 0 515.9375147459411 60" class="font"><!----><!----><!----><g data-v-423bf9ae="" id="67d5f9f8-8ab9-448e-9061-a9a9eb3752c9" fill="#D2B03C" transform="matrix(4.464285853667328,0,0,4.464285853667328,-4.687498961797303,-17.321430099963358)"><path d="M3.78 14.52C5.29 14.52 6.20 13.73 7.11 12.26L6.33 11.80C5.18 13.38 4.56 13.57 3.92 13.57C2.87 13.57 2.16 12.99 2.16 11.76C2.16 11.58 2.17 11.42 2.23 11.09L2.37 10.25C2.62 8.74 3.42 7.91 4.65 7.91C5.54 7.91 6.08 8.18 6.36 9.06L7.29 8.69C7.04 7.74 6.30 6.96 4.77 6.96C2.72 6.96 1.05 8.71 1.05 11.47C1.05 13.27 1.99 14.52 3.78 14.52ZM10.96 3.99L9.23 14.35L10.32 14.35L10.99 10.36C11.13 9.53 11.66 8.89 11.82 8.71C12.22 8.23 12.71 7.92 13.34 7.92C14.15 7.92 14.55 8.46 14.55 9.31C14.55 9.46 14.53 9.74 14.48 10.08L13.76 14.35L14.85 14.35L15.58 9.98C15.64 9.66 15.67 9.32 15.67 9.04C15.67 7.73 14.91 6.96 13.71 6.96C12.54 6.96 11.83 7.69 11.30 8.83L11.24 8.83L12.05 3.99ZM19.29 14.35L20.38 14.35L21.01 10.58C21.15 9.74 21.66 9.16 21.84 8.95C22.27 8.44 22.79 8.22 23.63 8.22L24.86 8.22L25.05 7.13L23.95 7.13C22.57 7.13 21.84 7.91 21.34 9.06L21.27 9.06L21.59 7.13L18.47 7.13L18.31 8.06L20.34 8.06ZM29.96 5.52C30.52 5.52 30.81 5.26 30.88 4.84C30.91 4.68 30.94 4.55 30.94 4.44C30.94 4.14 30.73 3.88 30.13 3.88C29.57 3.88 29.27 4.13 29.20 4.55C29.18 4.72 29.15 4.84 29.15 4.96C29.15 5.25 29.36 5.52 29.96 5.52ZM29.01 14.52C29.64 14.52 30.16 14.18 31.47 12.96L32.75 11.79L32.09 11.17L29.33 13.55L29.01 13.43L30.23 7.13L26.50 7.13L26.35 8.06L28.95 8.06L28.00 12.99C27.97 13.16 27.93 13.37 27.93 13.55C27.93 14.11 28.31 14.52 29.01 14.52ZM37.35 14.52C39.28 14.52 40.59 13.59 40.59 12.10C40.59 10.67 39.40 10.44 38.47 10.29L37.45 10.12C36.86 10.02 36.33 9.87 36.33 9.17C36.33 8.39 36.99 7.88 38.23 7.88C39.45 7.88 40.04 8.36 40.29 8.74L41.06 8.06C40.52 7.38 39.62 6.96 38.36 6.96C36.65 6.96 35.27 7.73 35.27 9.25C35.27 10.60 36.36 10.95 37.41 11.10L38.46 11.26C39.05 11.34 39.51 11.54 39.51 12.21C39.51 13.08 38.72 13.59 37.45 13.59C36.36 13.59 35.64 13.22 35.08 12.52L34.27 13.16C34.90 14.03 35.95 14.52 37.35 14.52ZM45.35 14.52C45.92 14.52 46.48 14.22 47.78 13.30L49.36 12.18L48.82 11.48L45.67 13.58L45.39 13.41L46.28 8.06L49.27 8.06L49.42 7.13L46.44 7.13L46.87 4.58L45.84 4.58L45.51 6.47C45.43 6.96 45.21 7.13 44.73 7.13L43.26 7.13L43.11 8.06L45.19 8.06L44.35 12.94C44.32 13.09 44.31 13.36 44.31 13.48C44.31 14.15 44.69 14.52 45.35 14.52ZM53.31 17.32C55.12 17.32 56.43 16.48 56.80 14.35L58.00 7.13L56.91 7.13L56.28 10.91C56.14 11.73 55.61 12.38 55.45 12.56C55.05 13.03 54.56 13.34 53.93 13.34C53.12 13.34 52.71 12.81 52.71 11.96C52.71 11.80 52.72 11.55 52.78 11.23L53.47 7.13L52.37 7.13L51.67 11.33C51.62 11.70 51.59 11.97 51.59 12.22C51.59 13.54 52.36 14.31 53.56 14.31C54.73 14.31 55.45 13.58 55.99 12.43L56.03 12.43L55.75 14.14C55.50 15.71 54.71 16.35 53.38 16.35C52.50 16.35 51.91 16.07 51.53 15.60L50.78 16.32C51.30 16.97 52.15 17.32 53.31 17.32ZM70.95 14.52C72.88 14.52 74.19 13.59 74.19 12.10C74.19 10.67 73.00 10.44 72.07 10.29L71.05 10.12C70.46 10.02 69.93 9.87 69.93 9.17C69.93 8.39 70.59 7.88 71.83 7.88C73.05 7.88 73.64 8.36 73.89 8.74L74.66 8.06C74.12 7.38 73.22 6.96 71.96 6.96C70.25 6.96 68.87 7.73 68.87 9.25C68.87 10.60 69.96 10.95 71.01 11.10L72.06 11.26C72.65 11.34 73.11 11.54 73.11 12.21C73.11 13.08 72.32 13.59 71.05 13.59C69.96 13.59 69.24 13.22 68.68 12.52L67.87 13.16C68.50 14.03 69.55 14.52 70.95 14.52ZM79.38 14.52C80.89 14.52 81.80 13.73 82.71 12.26L81.93 11.80C80.78 13.38 80.16 13.57 79.52 13.57C78.47 13.57 77.76 12.99 77.76 11.76C77.76 11.58 77.77 11.42 77.83 11.09L77.97 10.25C78.22 8.74 79.02 7.91 80.25 7.91C81.14 7.91 81.68 8.18 81.96 9.06L82.89 8.69C82.64 7.74 81.90 6.96 80.37 6.96C78.32 6.96 76.65 8.71 76.65 11.47C76.65 13.27 77.59 14.52 79.38 14.52ZM86.56 3.99L84.83 14.35L85.92 14.35L86.59 10.36C86.73 9.53 87.26 8.89 87.42 8.71C87.82 8.23 88.31 7.92 88.94 7.92C89.75 7.92 90.15 8.46 90.15 9.31C90.15 9.46 90.13 9.74 90.08 10.08L89.36 14.35L90.45 14.35L91.18 9.98C91.24 9.66 91.27 9.32 91.27 9.04C91.27 7.73 90.51 6.96 89.31 6.96C88.14 6.96 87.43 7.69 86.90 8.83L86.84 8.83L87.65 3.99ZM96.11 14.52C98.24 14.52 99.90 12.77 99.90 10.01C99.90 8.20 98.95 6.96 97.08 6.96C94.96 6.96 93.30 8.71 93.30 11.47C93.30 13.27 94.26 14.52 96.11 14.52ZM96.17 13.57C95.09 13.57 94.40 13.01 94.40 11.79C94.40 11.62 94.42 11.41 94.47 11.07L94.61 10.23C94.85 8.81 95.68 7.91 97.03 7.91C98.11 7.91 98.80 8.47 98.80 9.69C98.80 9.86 98.78 10.07 98.73 10.40L98.59 11.24C98.35 12.67 97.52 13.57 96.17 13.57ZM104.15 14.52C104.72 14.52 105.28 14.22 106.58 13.30L108.16 12.18L107.62 11.48L104.47 13.58L104.19 13.41L105.08 8.06L108.07 8.06L108.22 7.13L105.24 7.13L105.67 4.58L104.64 4.58L104.31 6.47C104.23 6.96 104.01 7.13 103.53 7.13L102.06 7.13L101.91 8.06L103.99 8.06L103.15 12.94C103.12 13.09 103.11 13.36 103.11 13.48C103.11 14.15 103.49 14.52 104.15 14.52ZM112.55 14.52C113.12 14.52 113.68 14.22 114.98 13.30L116.56 12.18L116.02 11.48L112.87 13.58L112.59 13.41L113.48 8.06L116.47 8.06L116.62 7.13L113.64 7.13L114.07 4.58L113.04 4.58L112.71 6.47C112.63 6.96 112.41 7.13 111.93 7.13L110.46 7.13L110.31 8.06L112.39 8.06L111.55 12.94C111.52 13.09 111.51 13.36 111.51 13.48C111.51 14.15 111.89 14.52 112.55 14.52Z"></path></g><!----><!----></svg>